<?xml version="1.0" encoding="UTF-8" standalone="no"?><svg xmlns="http://www.w3.org/2000/svg" xmlns:xlink="http://www.w3.org/1999/xlink" contentStyleType="text/css" height="572px" preserveAspectRatio="none" style="width:837px;height:572px;background:#FFFFFF;" version="1.1" viewBox="0 0 837 572" width="837px" zoomAndPan="magnify"><defs/><g><!--MD5=[75624a91e23933728aea3a2d611cdd24]
cluster br.edu.fatec.factory--><g id="cluster_br.edu.fatec.factory"><path d="M8.5,170 L167.5,170 A3.75,3.75 0 0 1 170,172.5 L177,192.2969 L827.5,192.2969 A2.5,2.5 0 0 1 830,194.7969 L830,562.5 A2.5,2.5 0 0 1 827.5,565 L8.5,565 A2.5,2.5 0 0 1 6,562.5 L6,172.5 A2.5,2.5 0 0 1 8.5,170 " fill="#F8C3C0" style="stroke:#000000;stroke-width:1.5;"/><line style="stroke:#000000;stroke-width:1.5;" x1="6" x2="177" y1="192.2969" y2="192.2969"/><text fill="#000000" font-family="sans-serif" font-size="14" font-weight="bold" lengthAdjust="spacing" textLength="158" x="10" y="184.9951">br.edu.fatec.factory</text></g><!--MD5=[9273d82899a95cfce9ad21d38612cc5c]
cluster br.ed.fatec.main--><g id="cluster_br.ed.fatec.main"><path d="M309.5,6 L439.5,6 A3.75,3.75 0 0 1 442,8.5 L449,28.2969 L566.5,28.2969 A2.5,2.5 0 0 1 569,30.7969 L569,118.5 A2.5,2.5 0 0 1 566.5,121 L309.5,121 A2.5,2.5 0 0 1 307,118.5 L307,8.5 A2.5,2.5 0 0 1 309.5,6 " fill="#ADD8E6" style="stroke:#000000;stroke-width:1.5;"/><line style="stroke:#000000;stroke-width:1.5;" x1="307" x2="449" y1="28.2969" y2="28.2969"/><text fill="#000000" font-family="sans-serif" font-size="14" font-weight="bold" lengthAdjust="spacing" textLength="129" x="311" y="20.9951">br.ed.fatec.main</text></g><!--MD5=[1c573188985f4c75505740d1b2f472b4]
class ShapeFactory--><g id="elem_ShapeFactory"><rect codeLine="2" fill="#F1F1F1" height="72.5625" id="ShapeFactory" rx="2.5" ry="2.5" style="stroke:#181818;stroke-width:0.5;" width="410" x="404" y="411"/><ellipse cx="557.75" cy="431.1328" fill="#B4A7E5" rx="11" ry="11" style="stroke:#181818;stroke-width:1.0;"/><path d="M553.6719,426.8984 L553.6719,424.7422 L561.0625,424.7422 L561.0625,426.8984 L558.5938,426.8984 L558.5938,434.9766 L561.0625,434.9766 L561.0625,437.1328 L553.6719,437.1328 L553.6719,434.9766 L556.1406,434.9766 L556.1406,426.8984 L553.6719,426.8984 Z " fill="#000000"/><text fill="#000000" font-family="sans-serif" font-size="12" font-style="italic" lengthAdjust="spacing" textLength="70" x="590.25" y="427.1387">«interface»</text><text fill="#000000" font-family="sans-serif" font-size="14" font-style="italic" lengthAdjust="spacing" textLength="94" x="578.25" y="442.9639">ShapeFactory</text><line style="stroke:#181818;stroke-width:0.5;" x1="405" x2="813" y1="451.2656" y2="451.2656"/><line style="stroke:#181818;stroke-width:0.5;" x1="405" x2="813" y1="459.2656" y2="459.2656"/><ellipse cx="415" cy="472.9141" fill="#84BE84" rx="3" ry="3" style="stroke:#038048;stroke-width:1.0;"/><text fill="#000000" font-family="sans-serif" font-size="14" lengthAdjust="spacing" textLength="384" x="424" y="476.2607">Calculable getShape(ShapeType type, Double[] values);</text></g><!--MD5=[a7185fa9f0bcf68c31d29fc3889db18a]
class ShapeFactoryImpl--><g id="elem_ShapeFactoryImpl"><rect codeLine="6" fill="#F1F1F1" height="64.2969" id="ShapeFactoryImpl" rx="2.5" ry="2.5" style="stroke:#181818;stroke-width:0.5;" width="410" x="233" y="205"/><ellipse cx="372.75" cy="221" fill="#ADD1B2" rx="11" ry="11" style="stroke:#181818;stroke-width:1.0;"/><path d="M375.7188,226.6406 Q375.1406,226.9375 374.5,227.0781 Q373.8594,227.2344 373.1563,227.2344 Q370.6563,227.2344 369.3281,225.5938 Q368.0156,223.9375 368.0156,220.8125 Q368.0156,217.6875 369.3281,216.0313 Q370.6563,214.375 373.1563,214.375 Q373.8594,214.375 374.5,214.5313 Q375.1563,214.6875 375.7188,214.9844 L375.7188,217.7031 Q375.0938,217.125 374.5,216.8594 Q373.9063,216.5781 373.2813,216.5781 Q371.9375,216.5781 371.25,217.6563 Q370.5625,218.7188 370.5625,220.8125 Q370.5625,222.9063 371.25,223.9844 Q371.9375,225.0469 373.2813,225.0469 Q373.9063,225.0469 374.5,224.7813 Q375.0938,224.5 375.7188,223.9219 L375.7188,226.6406 Z " fill="#000000"/><text fill="#000000" font-family="sans-serif" font-size="14" lengthAdjust="spacing" textLength="122" x="393.25" y="225.8467">ShapeFactoryImpl</text><line style="stroke:#181818;stroke-width:0.5;" x1="234" x2="642" y1="237" y2="237"/><line style="stroke:#181818;stroke-width:0.5;" x1="234" x2="642" y1="245" y2="245"/><ellipse cx="244" cy="258.6484" fill="#84BE84" rx="3" ry="3" style="stroke:#038048;stroke-width:1.0;"/><text fill="#000000" font-family="sans-serif" font-size="14" lengthAdjust="spacing" textLength="384" x="253" y="261.9951">Calculable getShape(ShapeType type, Double[] values);</text></g><!--MD5=[450ef3eaf0cc534204004191c7296897]
class Calculable--><g id="elem_Calculable"><rect codeLine="11" fill="#F1F1F1" height="72.5625" id="Calculable" rx="2.5" ry="2.5" style="stroke:#181818;stroke-width:0.5;" width="176" x="22" y="411"/><ellipse cx="70.75" cy="431.1328" fill="#B4A7E5" rx="11" ry="11" style="stroke:#181818;stroke-width:1.0;"/><path d="M66.6719,426.8984 L66.6719,424.7422 L74.0625,424.7422 L74.0625,426.8984 L71.5938,426.8984 L71.5938,434.9766 L74.0625,434.9766 L74.0625,437.1328 L66.6719,437.1328 L66.6719,434.9766 L69.1406,434.9766 L69.1406,426.8984 L66.6719,426.8984 Z " fill="#000000"/><text fill="#000000" font-family="sans-serif" font-size="12" font-style="italic" lengthAdjust="spacing" textLength="70" x="91.25" y="427.1387">«interface»</text><text fill="#000000" font-family="sans-serif" font-size="14" font-style="italic" lengthAdjust="spacing" textLength="70" x="91.25" y="442.9639">Calculable</text><line style="stroke:#181818;stroke-width:0.5;" x1="23" x2="197" y1="451.2656" y2="451.2656"/><line style="stroke:#181818;stroke-width:0.5;" x1="23" x2="197" y1="459.2656" y2="459.2656"/><ellipse cx="33" cy="472.9141" fill="#84BE84" rx="3" ry="3" style="stroke:#038048;stroke-width:1.0;"/><text fill="#000000" font-family="sans-serif" font-size="14" lengthAdjust="spacing" textLength="150" x="42" y="476.2607">double calcularArea();</text></g><!--MD5=[5655ee3e2a0d028d03fe20f829576392]
class Square--><g id="elem_Square"><rect codeLine="15" fill="#F1F1F1" height="64.2969" id="Square" rx="2.5" ry="2.5" style="stroke:#181818;stroke-width:0.5;" width="176" x="22" y="205"/><ellipse cx="81.25" cy="221" fill="#ADD1B2" rx="11" ry="11" style="stroke:#181818;stroke-width:1.0;"/><path d="M84.2188,226.6406 Q83.6406,226.9375 83,227.0781 Q82.3594,227.2344 81.6563,227.2344 Q79.1563,227.2344 77.8281,225.5938 Q76.5156,223.9375 76.5156,220.8125 Q76.5156,217.6875 77.8281,216.0313 Q79.1563,214.375 81.6563,214.375 Q82.3594,214.375 83,214.5313 Q83.6563,214.6875 84.2188,214.9844 L84.2188,217.7031 Q83.5938,217.125 83,216.8594 Q82.4063,216.5781 81.7813,216.5781 Q80.4375,216.5781 79.75,217.6563 Q79.0625,218.7188 79.0625,220.8125 Q79.0625,222.9063 79.75,223.9844 Q80.4375,225.0469 81.7813,225.0469 Q82.4063,225.0469 83,224.7813 Q83.5938,224.5 84.2188,223.9219 L84.2188,226.6406 Z " fill="#000000"/><text fill="#000000" font-family="sans-serif" font-size="14" lengthAdjust="spacing" textLength="49" x="101.75" y="225.8467">Square</text><line style="stroke:#181818;stroke-width:0.5;" x1="23" x2="197" y1="237" y2="237"/><line style="stroke:#181818;stroke-width:0.5;" x1="23" x2="197" y1="245" y2="245"/><ellipse cx="33" cy="258.6484" fill="#84BE84" rx="3" ry="3" style="stroke:#038048;stroke-width:1.0;"/><text fill="#000000" font-family="sans-serif" font-size="14" lengthAdjust="spacing" textLength="150" x="42" y="261.9951">double calcularArea();</text></g><!--MD5=[3ef42b4083fdf6cf15918bd3f2c82525]
class ShapeType--><g id="elem_ShapeType"><rect codeLine="19" fill="#F1F1F1" height="202.9375" id="ShapeType" rx="2.5" ry="2.5" style="stroke:#181818;stroke-width:0.5;" width="136" x="233" y="346"/><ellipse cx="259.7" cy="366.1328" fill="#EB937F" rx="11" ry="11" style="stroke:#181818;stroke-width:1.0;"/><path d="M263.8094,372.1328 L256.0906,372.1328 L256.0906,359.7422 L263.8094,359.7422 L263.8094,361.8984 L258.5438,361.8984 L258.5438,364.5703 L263.3094,364.5703 L263.3094,366.7266 L258.5438,366.7266 L258.5438,369.9766 L263.8094,369.9766 L263.8094,372.1328 Z " fill="#000000"/><text fill="#000000" font-family="sans-serif" font-size="12" font-style="italic" lengthAdjust="spacing" textLength="49" x="290.8" y="362.1387">«enum»</text><text fill="#000000" font-family="sans-serif" font-size="14" lengthAdjust="spacing" textLength="78" x="276.3" y="377.9639">ShapeType</text><line style="stroke:#181818;stroke-width:0.5;" x1="234" x2="368" y1="386.2656" y2="386.2656"/><text fill="#000000" font-family="sans-serif" font-size="14" lengthAdjust="spacing" textLength="62" x="239" y="403.2607">SQUARE,</text><text fill="#000000" font-family="sans-serif" font-size="14" lengthAdjust="spacing" textLength="84" x="239" y="419.5576">RECTANGLE</text><text fill="#000000" font-family="sans-serif" font-size="14" lengthAdjust="spacing" textLength="53" x="239" y="435.8545">CIRCLE,</text><text fill="#000000" font-family="sans-serif" font-size="14" lengthAdjust="spacing" textLength="72" x="239" y="452.1514">TRIANGLE,</text><text fill="#000000" font-family="sans-serif" font-size="14" lengthAdjust="spacing" textLength="124" x="239" y="468.4482">PARALLELOGRAM,</text><text fill="#000000" font-family="sans-serif" font-size="14" lengthAdjust="spacing" textLength="71" x="239" y="484.7451">TRAPEZO,</text><text fill="#000000" font-family="sans-serif" font-size="14" lengthAdjust="spacing" textLength="73" x="239" y="501.042">HEXAGON,</text><text fill="#000000" font-family="sans-serif" font-size="14" lengthAdjust="spacing" textLength="71" x="239" y="517.3389">DIAMOND,</text><text fill="#000000" font-family="sans-serif" font-size="14" lengthAdjust="spacing" textLength="39" x="239" y="533.6357">CUBE</text><line style="stroke:#181818;stroke-width:0.5;" x1="234" x2="368" y1="540.9375" y2="540.9375"/></g><!--MD5=[84718776d214be480e4c259efcb737fc]
class Main--><g id="elem_Main"><rect codeLine="37" fill="#F1F1F1" height="64.2969" id="Main" rx="2.5" ry="2.5" style="stroke:#181818;stroke-width:0.5;" width="231" x="322.5" y="41"/><ellipse cx="417.75" cy="57" fill="#ADD1B2" rx="11" ry="11" style="stroke:#181818;stroke-width:1.0;"/><path d="M420.7188,62.6406 Q420.1406,62.9375 419.5,63.0781 Q418.8594,63.2344 418.1563,63.2344 Q415.6563,63.2344 414.3281,61.5938 Q413.0156,59.9375 413.0156,56.8125 Q413.0156,53.6875 414.3281,52.0313 Q415.6563,50.375 418.1563,50.375 Q418.8594,50.375 419.5,50.5313 Q420.1563,50.6875 420.7188,50.9844 L420.7188,53.7031 Q420.0938,53.125 419.5,52.8594 Q418.9063,52.5781 418.2813,52.5781 Q416.9375,52.5781 416.25,53.6563 Q415.5625,54.7188 415.5625,56.8125 Q415.5625,58.9063 416.25,59.9844 Q416.9375,61.0469 418.2813,61.0469 Q418.9063,61.0469 419.5,60.7813 Q420.0938,60.5 420.7188,59.9219 L420.7188,62.6406 Z " fill="#000000"/><text fill="#000000" font-family="sans-serif" font-size="14" lengthAdjust="spacing" textLength="32" x="438.25" y="61.8467">Main</text><line style="stroke:#181818;stroke-width:0.5;" x1="323.5" x2="552.5" y1="73" y2="73"/><line style="stroke:#181818;stroke-width:0.5;" x1="323.5" x2="552.5" y1="81" y2="81"/><ellipse cx="333.5" cy="94.6484" fill="#84BE84" rx="3" ry="3" style="stroke:#038048;stroke-width:1.0;"/><text fill="#000000" font-family="sans-serif" font-size="14" lengthAdjust="spacing" textLength="205" x="342.5" y="97.9951">static void main(String[] args);</text></g><!--MD5=[ec5b234af7435bda0f5f35278192543c]
link ShapeFactoryImpl to ShapeFactory--><g id="link_ShapeFactoryImpl_ShapeFactory"><path codeLine="30" d="M463.6,269.21 C493.63,305.82 543.46,366.58 576.26,406.59 " fill="none" id="ShapeFactoryImpl-to-ShapeFactory" style="stroke:#181818;stroke-width:1.0;"/><polygon fill="#181818" points="579.78,410.87,577.1538,401.3777,576.6045,407.0079,570.9743,406.4586,579.78,410.87" style="stroke:#181818;stroke-width:1.0;"/><text fill="#000000" font-family="sans-serif" font-size="13" lengthAdjust="spacing" textLength="76" x="499" y="312.0669">implements</text></g><!--MD5=[9cbe6cb1dd2d834d40aa635117ae6656]
link Square to Calculable--><g id="link_Square_Calculable"><path codeLine="31" d="M110,269.21 C110,305.53 110,365.6 110,405.61 " fill="none" id="Square-to-Calculable" style="stroke:#181818;stroke-width:1.0;"/><polygon fill="#181818" points="110,410.87,114,401.87,110,405.87,106,401.87,110,410.87" style="stroke:#181818;stroke-width:1.0;"/><text fill="#000000" font-family="sans-serif" font-size="13" lengthAdjust="spacing" textLength="76" x="111" y="312.0669">implements</text></g><!--MD5=[e2ed7e132355f3f062eb3a478110df64]
link ShapeFactoryImpl to ShapeType--><g id="link_ShapeFactoryImpl_ShapeType"><path codeLine="32" d="M410.84,269.25 C403.15,278.59 394.98,289.01 388,299 C377.7,313.75 367.41,329.76 357.7,345.62 " fill="none" id="ShapeFactoryImpl-ShapeType" style="stroke:#181818;stroke-width:1.0;"/><text fill="#000000" font-family="sans-serif" font-size="13" lengthAdjust="spacing" textLength="55" x="389" y="312.0669">depends</text></g><!--MD5=[93df6c37df5f4a7c9cde78f8bbd9a2fd]
link ShapeFactoryImpl to Calculable--><g id="link_ShapeFactoryImpl_Calculable"><path codeLine="33" d="M359.5,269.09 C315.48,288.23 260.62,315.01 216,346 C189.13,364.66 162.43,390.03 142.54,410.62 " fill="none" id="ShapeFactoryImpl-Calculable" style="stroke:#181818;stroke-width:1.0;"/><text fill="#000000" font-family="sans-serif" font-size="13" lengthAdjust="spacing" textLength="55" x="292" y="312.0669">depends</text></g><!--MD5=[31cd447218d40326e3e6be019bd03a5a]
link Main to ShapeFactoryImpl--><g id="link_Main_ShapeFactoryImpl"><path codeLine="40" d="M438,105.24 C438,132.24 438,171.3 438,199.69 " fill="none" id="Main-to-ShapeFactoryImpl" style="stroke:#181818;stroke-width:1.0;"/><polygon fill="#181818" points="438,204.86,442,195.86,438,199.86,434,195.86,438,204.86" style="stroke:#181818;stroke-width:1.0;"/><text fill="#000000" font-family="sans-serif" font-size="13" lengthAdjust="spacing" textLength="23" x="439" y="150.0669">use</text></g><!--MD5=[659ec56f1d8e28fda84fa60518ad9ff0]
@startuml
package "br.edu.fatec.factory" #F8C3C0 {
interface ShapeFactory <<interface>> {
  + Calculable getShape(ShapeType type, Double[] values);
}

class ShapeFactoryImpl {
  + Calculable getShape(ShapeType type, Double[] values);
}
  

interface Calculable <<interface>> {
  + double calcularArea();
}

class Square {
  + double calcularArea();
}

enum ShapeType <<enum>> {
  SQUARE,
  RECTANGLE
  CIRCLE,
  TRIANGLE,
  PARALLELOGRAM,
  TRAPEZO,
  HEXAGON,
  DIAMOND,
  CUBE
}
  ShapeFactoryImpl - -> ShapeFactory : implements
  Square - -> Calculable : implements
  ShapeFactoryImpl - - ShapeType : depends
  ShapeFactoryImpl - - Calculable : depends 
}

package "br.ed.fatec.main" #ADD8E6 {
  class Main {
    + static void main(String[] args);
  }
  Main - -> ShapeFactoryImpl : use
}
@enduml

PlantUML version 1.2022.7(Mon Aug 22 17:01:30 UTC 2022)
(GPL source distribution)
Java Runtime: OpenJDK Runtime Environment
JVM: OpenJDK 64-Bit Server VM
Default Encoding: UTF-8
Language: en
Country: null
--></g></svg>